name C:\Users\u0101727\Documents\MyRepositories\upper-imu-dc\Results\main_tracking\Case_26\kinematics.mot
datacolumns 10
datarows 47
range 0.90000000 1.36000000
endheader 
time	clav_prot	clav_elev	scapula_abduction	scapula_elevation	scapula_upward_rot	scapula_winging	plane_elv	shoulder_elv	axial_rot	
          0.90000000	        -22.13528111	         -4.24286524	         -6.13773006	         -6.11386902	         21.84422083	          3.18904812	        -38.53611953	         10.68793110	         60.77757291	
          0.91000000	        -23.66652555	         -4.27407222	         -8.86951314	         -6.23326363	         21.87231229	          3.24650712	        -38.08864977	         10.77581430	         59.84767301	
          0.92000000	        -23.06965064	         -4.43261069	         -7.79897472	         -6.31687114	         21.87453772	          3.29468935	        -37.54936544	         10.88069234	         59.06535356	
          0.93000000	        -23.48428590	         -4.45777666	         -8.54230921	         -6.34950944	         21.82405459	          3.32636703	        -36.94207620	         11.01598762	         58.53604997	
          0.94000000	        -23.50124814	         -4.47725511	         -8.57366303	         -6.36288941	         21.81376416	          3.33667857	        -36.35981989	         11.12526451	         58.01834465	
          0.95000000	        -22.78606917	         -4.51349581	         -7.31166040	         -6.35324600	         21.84060676	          3.32402707	        -35.79201975	         11.21249206	         57.41354505	
          0.96000000	        -23.27808503	         -4.40391505	         -8.16305546	         -6.30879777	         21.87901405	          3.28823838	        -35.22783761	         11.29141538	         56.78944548	
          0.97000000	        -22.99526249	         -4.29842867	         -7.65686464	         -6.22702495	         21.94392625	          3.22434430	        -34.72506163	         11.34118248	         56.19141728	
          0.98000000	        -23.22762935	         -4.08044157	         -8.06543030	         -6.09279296	         22.01392030	          3.13142184	        -34.31952584	         11.36135431	         55.75182367	
          0.99000000	        -23.57366754	         -3.75345560	         -8.72126863	         -5.87619894	         22.04916568	          3.00700174	        -33.97372281	         11.36255892	         55.54163547	
          1.00000000	        -23.97846818	         -3.31493390	         -9.57285802	         -5.55857537	         21.98779685	          2.86394299	        -33.59810316	         11.38974837	         55.58655595	
          1.01000000	        -21.15603962	         -3.05054182	         -4.81467027	         -5.16962853	         21.87625974	          2.68445790	        -33.16707171	         11.41132802	         55.75421487	
          1.02000000	        -20.54470412	         -2.58117923	         -3.91975998	         -4.76586090	         21.79409032	          2.49490234	        -32.72188326	         11.38975068	         55.92875387	
          1.03000000	        -20.15469121	         -2.11274611	         -3.36118752	         -4.39287711	         21.78786242	          2.31041140	        -32.28690969	         11.30867016	         56.05531183	
          1.04000000	        -19.98382021	         -1.67711612	         -3.11312363	         -4.07946123	         21.88175244	          2.13967023	        -31.86411670	         11.16147273	         56.11260297	
          1.05000000	        -20.03397551	         -1.29413860	         -3.16731118	         -3.84266038	         22.08649335	          1.98575450	        -31.45162983	         10.94632836	         56.08865005	
          1.06000000	        -20.30662721	         -0.97206549	         -3.52419061	         -3.68822362	         22.40107098	          1.84690816	        -31.04780608	         10.66527117	         55.97484611	
          1.07000000	        -20.80003745	         -0.70425142	         -4.19106268	         -3.60748099	         22.81005146	          1.71700050	        -30.65131612	         10.32655053	         55.76594901	
          1.08000000	        -21.51186561	         -0.46101624	         -5.19474883	         -3.56999762	         23.27609469	          1.58598618	        -30.25851858	          9.95073847	         55.46501371	
          1.09000000	        -23.44165323	         -0.10587735	         -8.36808383	         -3.51869290	         23.72745088	          1.43628837	        -29.83580732	          9.57499602	         55.11429211	
          1.10000000	        -22.63633205	          0.10940840	         -6.79622115	         -3.38411267	         24.06116191	          1.28565619	        -29.30916014	          9.25161295	         54.82600289	
          1.11000000	        -22.10241068	          0.47833803	         -5.89155696	         -3.10488399	         24.17666711	          1.14715474	        -28.62021983	          9.05531780	         54.71190250	
          1.12000000	        -21.36865845	          0.92984296	         -4.76085288	         -2.72146765	         24.14325825	          1.01391534	        -27.86124731	          8.96029712	         54.66963517	
          1.13000000	        -20.73024231	          1.42056290	         -3.82850045	         -2.30880199	         24.07941471	          0.88107256	        -27.11169381	          8.88902955	         54.58504110	
          1.14000000	        -20.22707790	          1.90378036	         -3.10437983	         -1.91871731	         24.05539961	          0.74977731	        -26.39401077	          8.79558939	         54.41447052	
          1.15000000	        -19.87124482	          2.35664196	         -2.58145918	         -1.57583485	         24.10466329	          0.62077093	        -25.70999363	          8.65946372	         54.14919388	
          1.16000000	        -19.65227257	          2.77385538	         -2.23463892	         -1.28511324	         24.23569339	          0.49342627	        -25.05686140	          8.47887351	         53.79335225	
          1.17000000	        -19.54604390	          3.15957918	         -2.02723810	         -1.04049786	         24.44189003	          0.36642869	        -24.43164873	          8.26338960	         53.35625450	
          1.18000000	        -19.52309864	          3.52187858	         -1.91897921	         -0.83116821	         24.70924221	          0.23849985	        -23.83069070	          8.02712191	         52.84995903	
          1.19000000	        -19.55474199	          3.86962897	         -1.87244585	         -0.64535454	         25.02172381	          0.10882228	        -23.24829044	          7.78362708	         52.28890300	
          1.20000000	        -19.61686838	          4.21105159	         -1.85728729	         -0.47237424	         25.36468284	         -0.02286196	        -22.67595262	          7.54275835	         51.68965058	
          1.21000000	        -19.69180278	          4.55310117	         -1.85219287	         -0.30355701	         25.72657424	         -0.15635719	        -22.10265244	          7.30935686	         51.07016104	
          1.22000000	        -19.76868237	          4.90115806	         -1.84512705	         -0.13258858	         26.09946298	         -0.29117447	        -21.51604247	          7.08342082	         50.44848492	
          1.23000000	        -19.84277067	          5.25883680	         -1.83225720	          0.04448222	         26.47865978	         -0.42665348	        -20.90405912	          6.86129377	         49.84131882	
          1.24000000	        -19.91414406	          5.62790526	         -1.81609507	          0.22944667	         26.86191511	         -0.56203603	        -20.25651420	          6.63727667	         49.26266963	
          1.25000000	        -19.98617889	          6.00834710	         -1.80338056	          0.42226562	         27.24854755	         -0.69652414	        -19.56644956	          6.40514069	         48.72276854	
          1.26000000	        -20.06407238	          6.39858947	         -1.80303459	          0.62149523	         27.63865209	         -0.82933635	        -18.83096327	          6.15932637	         48.22750210	
          1.27000000	        -20.15358321	          6.79581758	         -1.82442865	          0.82472408	         28.03246832	         -0.95976238	        -18.05157797	          5.89576917	         47.77823892	
          1.28000000	        -20.26005790	          7.19629391	         -1.87605751	          1.02895841	         28.42990910	         -1.08720537	        -17.23429905	          5.61239627	         47.37191456	
          1.29000000	        -20.38768850	          7.59567473	         -1.96455587	          1.23096635	         28.83019479	         -1.21119678	        -16.38930184	          5.30936742	         47.00145716	
          1.30000000	        -20.53894224	          7.98935974	         -2.09395915	          1.42760939	         29.23160682	         -1.33138609	        -15.53017888	          4.98904175	         46.65661146	
          1.31000000	        -20.71403526	          8.37292860	         -2.26498145	          1.61620323	         29.63139001	         -1.44751219	        -14.67262101	          4.65564385	         46.32529686	
          1.32000000	        -20.91026531	          8.74262201	         -2.47392887	          1.79488197	         30.02584439	         -1.55936272	        -13.83249417	          4.31465076	         45.99551770	
          1.33000000	        -21.12084447	          9.09565054	         -2.71045344	          1.96282019	         30.41066262	         -1.66673390	        -13.02369662	          3.97196848	         45.65741665	
          1.34000000	        -21.33199148	          9.43005950	         -2.95181017	          2.12020947	         30.78142336	         -1.76937623	        -12.25628063	          3.63312491	         45.30504608	
          1.35000000	        -21.51538046	          9.74394493	         -3.14833733	          2.26805851	         31.13402306	         -1.86685385	        -11.53533031	          3.30279127	         44.93748672	
          1.36000000	        -21.62352628	         10.03437024	         -3.21401763	          2.40761536	         31.46516454	         -1.95829301	        -10.86054655	          2.98448286	         44.55897448	
